<?xml version="1.0" encoding="utf-8"?>
<svg version="1.1" xmlns="http://www.w3.org/2000/svg" xmlns:xlink="http://www.w3.org/1999/xlink" x="0px" y="0px"
	 viewBox="-58.1 -236.4 386 600" style="enable-background:new -58.1 -236.4 386 600;" xml:space="preserve">
<path class="st0" fill="#ffffff" d="M4.2-212.5c0,0.1-7.6-0.4-13.6,2.8c-5.3,2.8-9,9.2-10.4,11.7c-2.2,4-5.1,7.6-6.9,11.8
	c-1.5,3.3-6.1,21.3-2.8,32.1c4.8,15.6,18.6,24.9,20.2,26.1c0.6,0.5,21.2,2.8,26,0.7c4.6-2,23.8-2.8,34.6-16.2
	c8.3-10.3,9.3-33.3,8.3-38c-1.1-4.6-11.1-19-23.9-25.4C22.1-213.6,6.1-212.3,4.2-212.5z M-22.9,88.6c-2.4-6.8-15.6-63.9-16.8-79.5
	c-1.2-15.6,3.1-55.8,3.3-58.7c0.6-10.7,7.2-47.3,7.4-48.4c0.3-1.4,4.5-16.1,5.4-19.3c0.5-1.9-0.2-3.3-1.6-4.4
	c-7.2-6-11.9-14-17.1-21.7c-4.2-6.1-4.9-13-5.5-20c0-0.2,2-28.6,12.2-44.3s25.4-17.1,27.6-17.8c4.4-1.4,18.9-2.1,31.3,0.1
	c8.6,1.5,30.2,9.7,38.4,19.3c5.6,5,13,23.1,13.4,25.9s0.5,31.6-16.8,49.7c-12.5,13-30.2,15.6-32.6,16.5c-3.4,1.2-4.6,4.1-5.1,7.2
	c-0.5,3-0.9,6.2-0.6,9.2c0.8,10.4,1.9,20.9,2.9,31.3c0,9.4,15.5,48.6,22.3,61.5c3.2,6,9,12.6,12,18.7C60,19.8,74.6,38.5,76,40.2
	c0.6,0.7-16.1,3.1-24.3,1.1c-2.9-0.7-6.9-7.5-7.6-9c-0.2-0.3-0.4-0.6-0.5-1c-1.8-3.6-21.8-32.2-32-63.6S1.3-97.6-0.7-104.4
	c-0.9-3.1-4.2-3.8-5-3.8c-2,0-3.2,0.9-3.8,2.7c-1.6,4.5-3.2,9-4.6,13.6c-1.7,5.4-6.8,51.4-5.9,91.5c0.7,29.4,9.3,65.7,10.2,68.7
	C-8.4,73.8-21.9,91.4-22.9,88.6z M312.4-175.6c-0.8-4.2-1.2-8.6-2.6-12.6c-1.2-3.4-5.5-14.3-15.3-23.2c-4-3.7-18.8-12.1-31-10.3
	c-17.3,2.6-32.9,17.2-36.2,21.9c-6.7,9.6-9.3,24.1-7.9,29.8c3.3,14.1,19.7,25.9,22.5,28c2.4,1.8,19,11.7,31.8,10.9
	c16-0.9,28.7-13.2,31.5-17.6C311.4-158.4,312.3-172.9,312.4-175.6z M288.3,79.6l-18-17.7c0,0,15.2-36.6,17.4-45.2
	c1.7-6.3,4.5-29.5,5.3-41s-2.8-30.8-3.7-37.3c-0.5-3.7-6.5-36.5-11.1-46.3c-0.4-1-1.6-1.6-2.5-2.4c-2.5,2.3-2.2,19.6-3.2,25.5
	c-2.4,13-5.5,49.3-14.5,69.4c-9,20.1-20.6,41.2-25.2,46.5c-2.3,2.7-4.6,6.4-4.6,6.4l-24,3.9c4.3-6.1,21.8-30.4,23.7-34.2
	c4.2-8.2,8.5-16.4,12.5-24.7C246-29.4,249.2-42,251.2-55c1.4-9.4,2.4-18.8,3.6-28.2c0.3-2.4,1.3-4.7,1.4-7
	c0.4-6.5,0.7-12.9,0.6-19.4c-0.1-4.1-1.8-7.7-5.9-9.6c-9.7-4.5-18.6-10.4-27-17c-6.2-4.8-11.5-10.6-15.7-17.3
	c-5.1-8.2-6.7-17.2-5-26.6c0.9-5.1,5.9-23.5,16.7-34.4c13.6-13.8,33.8-20,36.7-20.7c9.7-2.3,19.2-1.5,28.6,2.8c2,0.9,19,9.4,27,19.3
	c11.5,14.4,14.7,31.9,15.1,34.2c0.7,4.4,0.7,22.5-5.7,33.9c-7.1,12.6-20.8,18.6-22.8,20.4c-2.7,2.4-4.4,4.8-3.4,8.4
	c1.6,5.9,3.2,11.8,5,17.6c1,3.3,6.7,27.5,8.4,50.8c1.6,22.1-0.7,43.5-0.9,45.7c-0.7,5.5-3,23-7.3,39.2
	C295.8,54.8,288.3,79.6,288.3,79.6z M5.4-159.2c-4.8-0.5-7.9-3.2-10.1-6.7c-1.2-2-0.4-9.9,2.2-11.9c1.7-1.3,8.5-3.6,10.4-2.5
	c0.9,0.5,2,0.8,2.9,1.4c7.7,4.7,6.9,12.3,1.7,17C10.8-160.3,7.9-160,5.4-159.2z M262.7-167.2c-4.8,0.6-10.4-5.6-12.2-10.3
	c-2.1-5.7,0.4-9.7,5.5-11.9c4-1.8,8.4-2,12.5,0.2c1.9,1,8.6,8.2,7.8,11.4C274.4-171,268.6-167.3,262.7-167.2z M90.7,136.4
	c-3.9,0.4-6.1,3.2-5.8,7.2c0.2,2.5,2,20.8,4.5,27.2c2.4,6.2,15.2,73.1,16.8,79.6c2.4,9.6,13.3,55.2,18.3,64.6
	c0.9,3.9,6.1,5.6,8.9,2.9c0.8-0.8,6.2-11.1,6.6-12.2c2.7-6.9,11.8-43.9,13.3-55.4c0.9-7.2,22.7-103.4,20.3-109
	c-1.3-3-2.5-5.1-5.7-5.3C156,135,94,136.1,90.7,136.4z M98.6,284.5c-0.9-2.9-8.5-41.3-8.7-41.8c-3.2-9.1-15.9-88.7-17.8-98.7
	c-0.6-3.3-2.5-5.8-5.9-6.2c-7.1-1-98.5-6.9-100.2-6.5c-5.6,1.4-6.7,5-2.8,9c1.9,1.9,14.8,16.9,19.2,22.7
	c7.1,9.3,13.9,18.9,21.2,28.1c9.2,11.6,18.9,22.9,28,34.6c5,6.4,60.3,64.5,64.4,68.4C97.4,292.5,99.3,286.6,98.6,284.5z
	 M164.2,292.3c3.8-0.1,8.1-0.9,11-4.1c2.9-3.2,51.4-67.7,56.3-75c6.1-9,12.1-18.2,18.4-27.1c3.9-5.5,37.3-47.7,39.1-50.6
	s0-5.7-3.4-5.5c-3.2,0.2-6.4,0.7-9.7,0.8c-7.3,0.4-74.8,3.2-77.8,3.3c-2.9,0.1-4.7,1.5-5.4,4.4c-1.6,6.8-6.9,29.2-8.1,33.6
	c-3.3,11.8-13.6,66.4-15,74.7C168.2,255.2,164.2,288.3,164.2,292.3z M-4,61.4C0.8,57.7,16.6,44,20.2,41.6c1.1-0.7,2.8-0.7,4.2-0.8
	c4.9-0.2,9.8-0.2,14.7-0.4c6.2-0.3,34-1.9,35.1-1.8c9.8,0.8,85,1.7,87.2,1.7c13.3-0.2,26.6-0.3,40-0.5c3,0,29.7-5.3,33.2-4.2
	c4.8,1.4,16.4,8.7,17.9,9.8c1.2,0.8,12.1,9.9,13.1,10.5c6.6,4.7,20.5,20.9,22.8,23.8c4.2,5.3,22.4,28.9,27.2,35.4
	c3.3,4.5,2.9,10.5-0.7,14.6c-5.5,6.3-79.1,113.6-83.3,119.2c-6.7,8.9-13.7,17.7-20.5,26.5c-3.7,4.7-72.2,86.9-73.7,87.4
	c-1.1,0.4-2.4,0.4-3.4,0.8c-3,1.4-26.8-21.7-29-23.8c-2-1.8-87.9-109-91.6-113.3c-3.2-3.7-65.8-83.4-68.5-86.8
	c-4.7-5.8-3.2-15.9,2.8-20.1c3.7-2.6,22.1-25.4,27.4-31.7C-22.1,84.9-8.5,64.9-4,61.4z M220,119.3c15.6-1.9,62.6-3.3,69.6-4.3
	c4-0.6,5.1-1.8,4.1-5.7c-1.5-6-5.2-10.6-9.2-15c-5.6-6.2-29.2-29.5-36.1-34.2c-2.1-1.4-4.7-1.8-6.7-0.1c-2.5,2.1-4.7,4.8-6.9,7.2
	c-1.7,1.9-27,40.1-32.5,47.8c-1.6,2.3-0.6,3.8,2.3,4.1C207.7,119.3,218.1,119.6,220,119.3z M48.2,121.4c2.3-0.2,4.8-0.2,7.2-0.8
	c3.9-1,5.1-4,2.8-7.4c-2.3-3.4-8.7-11.7-9.3-12.6c-2.2-3.3-16.9-23-21.6-30c-3.2-4.8-6.6-5.3-10.6-1.3c-4.5,4.4-33.9,37.1-35.7,39.7
	c-0.5,0.7-5.8,8.3,3.9,8.2c7.8,0.6,32.8,1.8,40.3,2.3c0.5,0,0.9,0.1,1.2,0.1C33.6,119.9,40.7,120.7,48.2,121.4z M149.2,56.5
	c-2.9,0.6-3.5,2.6-2,5.1c0.5,0.9,20.7,40.1,25.9,46.7c3.4,4.3,5.6,4.9,9.4,1.1c4.2-4.1,28-43.3,32.1-49.1c1.2-1.7,1.1-2.8-0.7-3.8
	c-0.8-0.4-1.8-0.8-2.7-0.9C200.8,53.7,152.8,55.7,149.2,56.5z M110.2,61.1c0-3.5-1.5-5.2-4.3-5.5c-7.8-0.8-60.7-0.6-62.2,0.1
	c-2.1,0.9-2.7,2.5-1.9,4.7c2.4,6.9,25.7,34,31.3,40.3c2.6,2.9,4,2.8,7,0.1c4.3-3.9,24.8-30,25.6-31.6
	C107.3,66.2,110.3,63.8,110.2,61.1z M149.9,119.1c4.9-0.4,5.8-1.8,3.8-6.5c-1.9-4.3-12.5-30.3-19.6-36.9c-2.3-2.1-5-3.1-7.9-1.3
	c-1.6,1-8.3,8.5-10.4,10.8c-1.1,1.3-17.4,24.9-19.1,28.6c-1.8,3.7-0.2,6.1,4,6.2C104.8,120,145.7,119.4,149.9,119.1z"/>
</svg>
